# xmcd CD database file
#
# Track frame offsets:
#	180
#	13240
#	27687
#	38398
#	54909
#	66290
#	75721
#	83817
#	97809
#	113798
#	126366
#	141122
#	154508
#	158524
#	170617
#	181653
#	203048
#	220363
#	225974
#	232657
#	242428
#	251045
#	261679
#	269696
#	282743
#	294056
#	304952
#	313386
#	322790
#
# Disc length: 4370 seconds
#
# Revision: 0
# Processed by: cddbd v1.5.2PL0 Copyright (c) Steve Scherf et al.
# Submitted via: CDex 1.70beta2
#
DISCID=9011101d
DTITLE=Cash Johnny - The Johnny Cash Show Vol 2
DYEAR=2007
DGENRE=Country
TTITLE0=Like A Soldier (w. Willie Nelson)
TTITLE1=Desperado (w. Don Heney)
TTITLE2=Solitary Man (w. Tom Petty)
TTITLE3=I See A Darkness (w. Will Oldham)
TTITLE4=Ring Of Fire (w. Willie Nelson)
TTITLE5=Country Boy (w. Willie Nelson)
TTITLE6=Hello Walls (w. Willie Nelson)
TTITLE7=Call Me The Breeze (w. J.J. Cale)
TTITLE8=Crazy Old Soldier (w. Ray Charles)
TTITLE9=I'll Say It's True (w. George Jomes)
TTITLE10=New Moon Over Jamaica (w. Paul and Linda McCartney, June Carter and Tom T. Hall)
TTITLE11=Water From The Wells Of Home (w. John Carter Cash)
TTITLE12=Oklahoma Hills (w. Arlo Guthrie)
TTITLE13=Shame And Scandal (w. Odetta)
TTITLE14=Uncloudy Day (w. Carrie Cash)
TTITLE15=Gentle On My Mind-Little Green Apples-Honey-Release Me-Born To Loose-I'm Sorry (w. Mama Cass)
TTITLE16=Standing On The Corner (w. Louis Armstrong)
TTITLE17=I'm Busted (w. Ray Charles)
TTITLE18=I Walk The Line-Wabash Cannonball (w. Tex Ritter and Roy Acuff)
TTITLE19=Them Two Hands Have Been Good 'Uns (w. Chet Atkins)
TTITLE20=Oh Susanna (w. James Taylor)
TTITLE21=I Ride An Old Paint-Streets Of Larado (w. Marty Robbins)
TTITLE22=Do What You Do, Do Well Boy (w. Tommy Cash)
TTITLE23=Make Me Help It Through The Night (w. June Carter)
TTITLE24=If I Were A Carpenter (w. June Carter)
TTITLE25=Keep On The Sunny Side (w. June Carter and The Statler Brothers)
TTITLE26=King Of The Road (w. Roger Miller)
TTITLE27=There Ain't No Good Chain Gang-Viennese Songs - Medley (w. Peter Alexander)
TTITLE28=Jung San Ma, Fesch San Ma (w. Peter Alexander)
EXTD=YEAR: 2007
EXTT0=
EXTT1=
EXTT2=
EXTT3=
EXTT4=
EXTT5=
EXTT6=
EXTT7=
EXTT8=
EXTT9=
EXTT10=
EXTT11=
EXTT12=
EXTT13=
EXTT14=
EXTT15=
EXTT16=
EXTT17=
EXTT18=
EXTT19=
EXTT20=
EXTT21=
EXTT22=
EXTT23=
EXTT24=
EXTT25=
EXTT26=
EXTT27=
EXTT28=
PLAYORDER=
